<?xml version="1.0" standalone="no"?>
<!DOCTYPE svg PUBLIC "-//W3C//DTD SVG 20010904//EN"
 "http://www.w3.org/TR/2001/REC-SVG-20010904/DTD/svg10.dtd">
<svg version="1.0" xmlns="http://www.w3.org/2000/svg"
 width="1024.000000pt" height="1024.000000pt" viewBox="0 0 1024.000000 1024.000000"
 preserveAspectRatio="xMidYMid meet">
<metadata>
Created by potrace 1.11, written by Peter Selinger 2001-2013
</metadata>
<g transform="translate(0.000000,1024.000000) scale(0.100000,-0.100000)"
fill="#000000" stroke="none">
<path d="M4185 9715 c-68 -18 -170 -57 -230 -88 -185 -93 -373 -307 -444 -503
-64 -176 -61 -70 -61 -2151 l0 -1894 -118 133 c-65 73 -213 242 -330 375 -261
298 -347 375 -507 456 -345 173 -779 99 -1060 -180 -178 -177 -264 -403 -252
-663 10 -213 49 -316 257 -679 320 -557 666 -1111 1131 -1808 470 -706 722
-1143 1023 -1780 130 -275 173 -341 263 -400 l56 -38 2086 -3 2086 -2 50 25
c134 65 172 127 265 435 381 1252 560 1976 637 2575 24 190 32 2387 9 2541
-59 395 -336 700 -718 793 -185 44 -304 37 -560 -36 -12 -4 -24 9 -44 49 -76
150 -222 308 -362 392 -90 54 -242 110 -342 125 -147 24 -340 6 -477 -44 l-68
-24 -145 148 c-268 275 -381 332 -659 330 -75 0 -182 -6 -238 -12 l-103 -12 0
520 c0 534 -5 633 -40 763 -87 320 -347 566 -688 652 -94 24 -337 27 -417 5z
m330 -643 c67 -32 116 -82 148 -151 l22 -46 5 -1545 c6 -1745 -2 -1591 86
-1689 123 -137 327 -144 458 -16 21 21 51 64 65 94 l26 56 5 580 c7 655 4 633
86 724 61 68 120 94 214 95 123 0 214 -55 267 -162 l28 -57 5 -785 c4 -520 9
-795 17 -815 35 -99 95 -169 178 -207 75 -35 190 -32 267 5 65 32 121 89 152
156 20 45 21 60 26 631 l5 585 26 55 c57 121 143 180 262 180 38 0 87 -5 107
-11 65 -20 131 -78 167 -148 l33 -63 0 -726 c0 -411 5 -760 10 -802 13 -96 48
-167 110 -223 134 -121 352 -97 460 50 61 83 61 88 69 668 l6 530 27 51 c30
57 78 103 141 136 65 34 185 32 252 -4 64 -34 118 -90 147 -153 l23 -50 3
-1095 c3 -1104 -1 -1274 -34 -1500 -43 -294 -105 -545 -395 -1580 -83 -294
-159 -566 -169 -604 -11 -38 -27 -77 -36 -87 -17 -18 -69 -19 -1773 -19 -2040
0 -1794 -17 -1862 132 -62 135 -234 471 -324 633 -194 349 -427 723 -890 1430
-413 631 -529 815 -844 1340 -204 339 -258 456 -268 574 -4 58 -1 72 24 121
75 146 288 183 430 74 18 -14 261 -285 540 -602 748 -852 731 -833 804 -872
86 -46 189 -53 267 -20 74 32 142 109 173 196 l24 69 5 2335 5 2335 21 46 c72
155 248 222 399 151z"/>
</g>
</svg>
